<?xml version="1.0" encoding="UTF-8" standalone="no"?>
<svg
   width="1024"
   height="1024"
   viewBox="0 0 1024 1024"
   fill="none"
   version="1.1"
   id="svg20781"
   sodipodi:docname="github.svg"
   inkscape:version="1.2.2 (b0a8486541, 2022-12-01)"
   xmlns:inkscape="http://www.inkscape.org/namespaces/inkscape"
   xmlns:sodipodi="http://sodipodi.sourceforge.net/DTD/sodipodi-0.dtd"
   xmlns="http://www.w3.org/2000/svg"
   xmlns:svg="http://www.w3.org/2000/svg">
  <sodipodi:namedview
     id="namedview6"
     pagecolor="#ffffff"
     bordercolor="#000000"
     borderopacity="0.25"
     inkscape:showpageshadow="2"
     inkscape:pageopacity="0.0"
     inkscape:pagecheckerboard="0"
     inkscape:deskcolor="#d1d1d1"
     showgrid="false"
     inkscape:zoom="0.38946116"
     inkscape:cx="-428.79757"
     inkscape:cy="739.48324"
     inkscape:window-width="1366"
     inkscape:window-height="736"
     inkscape:window-x="0"
     inkscape:window-y="0"
     inkscape:window-maximized="1"
     inkscape:current-layer="svg20781" />
  <defs
     id="defs20785" />
  <path
     id="path20839"
     style="stroke-linecap:round;stroke-width:0;fill-opacity:1;fill:#cad3f5"
     d="M 872.306,1.1063846 C 851.33461,0.04836763 797.82867,5.7927321 705.32786,68.669105 653.73699,54.159171 598.92152,46.90261 544.10623,46.90261 c -54.8153,0 -109.63076,7.256561 -161.22163,21.766495 C 259.55017,-14.359946 205.54228,2.5676445 205.54228,2.5676445 170.07356,91.239453 192.64318,157.34003 199.09204,173.46218 c -41.11148,45.14202 -66.099,103.18143 -66.099,173.31276 0,246.66884 149.93498,302.29155 293.42208,318.4137 -18.54046,16.12215 -35.46955,44.33658 -41.1123,86.25417 -37.08093,16.92826 -129.78239,44.33556 -187.82211,-53.20343 -12.09161,-19.34658 -48.36744,-66.90757 -99.152188,-66.10146 -54.00919,0.80611 -21.76411,30.63202 0.80689,42.72363 27.407648,15.31604 58.846488,72.55015 66.101458,91.09061 12.89772,36.27483 54.81571,105.60033 216.84328,75.77437 0,54.0092 0.80445,104.79329 0.80445,120.10932 0,14.35655 -8.84338,30.29264 -31.15404,31.40988 A 642.36743,642.36743 0 0 0 543.70524,1023 642.36743,642.36743 0 0 0 733.35271,993.35397 c -21.14419,-1.51351 -29.63618,-17.50494 -29.63618,-31.51812 0,-21.76489 0.80688,-91.08882 0.80688,-177.34232 0,-60.45805 -20.1534,-99.15219 -43.53052,-119.30489 143.4871,-16.12215 294.22895,-70.93875 294.22895,-318.4137 0,-70.93744 -24.98994,-128.17074 -66.10142,-173.31276 6.44885,-16.12215 29.02094,-82.222727 -6.44778,-170.8945355 0,0 -3.37619,-1.1085876 -10.36664,-1.4612599 z" />
</svg>
