<?xml version="1.0" encoding="UTF-8" standalone="no"?>
<!-- Generator: Adobe Illustrator 21.1.0, SVG Export Plug-In . SVG Version: 6.00 Build 0)  -->

<svg
   version="1.1"
   x="0px"
   y="0px"
   viewBox="0 0 167.60001 167.6"
   xml:space="preserve"
   id="svg906"
   width="167.60001"
   height="167.60001"
   sodipodi:docname="reddit.svg"
   inkscape:version="1.2.2 (b0a8486541, 2022-12-01)"
   xmlns:inkscape="http://www.inkscape.org/namespaces/inkscape"
   xmlns:sodipodi="http://sodipodi.sourceforge.net/DTD/sodipodi-0.dtd"
   xmlns="http://www.w3.org/2000/svg"
   xmlns:svg="http://www.w3.org/2000/svg"><sodipodi:namedview
   id="namedview16"
   pagecolor="#ffffff"
   bordercolor="#000000"
   borderopacity="0.25"
   inkscape:showpageshadow="2"
   inkscape:pageopacity="0.0"
   inkscape:pagecheckerboard="0"
   inkscape:deskcolor="#d1d1d1"
   showgrid="false"
   inkscape:zoom="1.189762"
   inkscape:cx="-175.66539"
   inkscape:cy="5.8835296"
   inkscape:window-width="1366"
   inkscape:window-height="736"
   inkscape:window-x="0"
   inkscape:window-y="0"
   inkscape:window-maximized="1"
   inkscape:current-layer="g892" /><defs
   id="defs910" />
<style
   type="text/css"
   id="style868">
	.st0{fill:#FF4500;}
	.st1{fill:#222222;}
	.st2{fill:#FFFFFF;}
	.st3{display:none;}
	.st4{display:inline;fill:none;stroke:#D8D8D8;stroke-width:0.4925;stroke-miterlimit:10;}
	.st5{display:inline;fill:none;stroke:#D8D8D8;stroke-width:0.5589;stroke-miterlimit:10;}
	.st6{display:inline;}
</style>
<g
   id="Artwork"
   transform="translate(-56,-56)">
	<g
   id="g892">
		
		<path
   class="st2"
   d="m 223.60001,141.00143 c 0,-10.21218 -8.25986,-18.32186 -18.32187,-18.32186 -4.95591,0 -9.46129,1.95233 -12.76523,5.1061 -12.61506,-9.01076 -29.88567,-14.86775 -49.10861,-15.61864 l 8.41003,-39.346956 27.33262,5.856992 c 0.30036,6.908242 6.00718,12.464866 13.0656,12.464866 7.2086,0 13.06559,-5.856984 13.06559,-13.065585 0,-7.208603 -5.85699,-13.065593 -13.06559,-13.065593 -5.1061,0 -9.61148,3.003584 -11.71398,7.358782 L 150.01219,65.91183 c -0.90108,-0.15018 -1.80216,0 -2.40287,0.450537 -0.7509,0.450537 -1.20143,1.201433 -1.35161,2.102509 l -9.31112,43.852334 c -19.5233,0.60071 -37.09426,6.4577 -49.859498,15.61864 -3.303941,-3.15378 -7.80932,-5.1061 -12.76523,-5.1061 -10.212188,0 -18.321866,8.25986 -18.321866,18.32186 0,7.50896 4.505376,13.8165 10.812904,16.6699 -0.300358,1.80214 -0.450538,3.6043 -0.450538,5.55663 0,28.23369 32.889249,51.21111 73.437638,51.21111 40.54839,0 73.43764,-22.82724 73.43764,-51.21111 0,-1.80215 -0.15018,-3.75449 -0.45054,-5.55663 6.30753,-2.8534 10.81291,-9.31112 10.81291,-16.82008 z m -125.850196,13.0656 c 0,-7.2086 5.856996,-13.0656 13.065596,-13.0656 7.2086,0 13.06559,5.857 13.06559,13.0656 0,7.2086 -5.85699,13.06559 -13.06559,13.06559 -7.2086,0.15017 -13.065596,-5.85699 -13.065596,-13.06559 z m 73.137276,34.6914 c -9.01074,9.01075 -26.13118,9.61146 -31.08709,9.61146 -5.10609,0 -22.22653,-0.75088 -31.0871,-9.61146 -1.35161,-1.35162 -1.35161,-3.45412 0,-4.80574 1.35161,-1.35161 3.45412,-1.35161 4.80573,0 5.70682,5.70682 17.72115,7.65914 26.28137,7.65914 8.56021,0 20.72473,-1.95232 26.28136,-7.65914 1.35161,-1.35161 3.45413,-1.35161 4.80573,0 1.20144,1.35162 1.20144,3.45412 0,4.80574 z m -2.40286,-21.47564 c -7.2086,0 -13.0656,-5.85698 -13.0656,-13.06558 0,-7.2086 5.857,-13.0656 13.0656,-13.0656 7.2086,0 13.06559,5.857 13.06559,13.0656 0,7.05842 -5.85699,13.06558 -13.06559,13.06558 z"
   id="path888"
   style="stroke-width:1.5018;fill-opacity:1;fill:#f5a97f" />
	</g>
</g>
<g
   id="Spacing_Guides"
   class="st3"
   transform="translate(-56,-56)">
	<rect
   class="st4"
   width="598.59998"
   height="55.900002"
   id="rect895"
   x="0"
   y="0" />
	<rect
   y="223.60001"
   class="st4"
   width="598.59998"
   height="55.900002"
   id="rect897"
   x="0" />
	<rect
   x="0"
   class="st5"
   width="55.900002"
   height="279.60001"
   id="rect899"
   y="0" />
	<rect
   x="542.70001"
   class="st5"
   width="55.900002"
   height="279.60001"
   id="rect901"
   y="0" />
	<g
   id="reddit_round"
   class="st6">
	</g>
	<g
   id="icon_2"
   class="st6">
	</g>
</g>
</svg>
